<?xml version="1.0" encoding="UTF-8"?>
<svg id="Calque_2" data-name="Calque 2" xmlns="http://www.w3.org/2000/svg" viewBox="0 0 208.37 27.7">
  <defs>
    <style>
      .cls-1 {
        fill: #fff;
      }

      .cls-1, .cls-2 {
        stroke-width: 0px;
      }

      .cls-2 {
        fill: #1e1e1e;
      }
    </style>
  </defs>
  <g id="OBJECTS">
    <g>
      <path class="cls-1" d="m172.74,4.46H35.28c-1.88,0-4.04,1.17-5.66,3.03-1.47,1.68-2.5,3.92-2.5,6.36s1.03,4.68,2.5,6.36c1.63,1.86,3.78,3.03,5.66,3.03h137.47c1.94,0,4.39-1.23,6.27-3.17,1.6-1.66,2.76-3.85,2.76-6.22s-1.16-4.55-2.76-6.22c-1.87-1.94-4.33-3.17-6.27-3.17Z"/>
      <path class="cls-2" d="m195,15.16c2.65,1.46,3.55,3.67,3.7,5.58.16,1.9,3.71,2.41,3.15-1.26-.55-3.67-6.4-4.23-6.85-4.31Z"/>
      <path class="cls-2" d="m194.81,13.61c.08,0,13.56,5.89,13.56-.05,0-5.31-13.38.05-13.56.05Z"/>
      <path class="cls-2" d="m201.85,7.86c.56-3.67-2.99-3.16-3.15-1.26-.16,1.9-1.05,4.12-3.7,5.58.45-.08,6.3-.65,6.85-4.32Z"/>
      <path class="cls-2" d="m6.52,19.47c-.56,3.67,2.99,3.17,3.15,1.26.16-1.9,1.05-4.12,3.7-5.58-.45.08-6.3.65-6.85,4.31Z"/>
      <path class="cls-2" d="m0,13.56c0,5.94,13.49.05,13.56.05C13.38,13.61,0,8.25,0,13.56Z"/>
      <path class="cls-2" d="m13.37,12.18c-2.65-1.46-3.55-3.67-3.7-5.58-.16-1.9-3.71-2.41-3.15,1.26.55,3.67,6.4,4.23,6.85,4.32Z"/>
      <path class="cls-2" d="m189.92,17.74c-.66-.24-1.24-.75-1.66-1.42-.42-.68-.67-1.54-.67-2.47s.25-1.79.67-2.47c.41-.66.98-1.16,1.64-1.41.07-.02.13-.05.19-.09.47-.29.62-.9.34-1.37-2.27-3.77-5.01-5.9-8.06-7.09-3-1.18-6.24-1.42-9.62-1.42H36.39c-3.62,0-6.89.07-9.93,1.21-3.08,1.16-5.82,3.38-8.21,7.67-.28.46-.14,1.07.32,1.36.53.33.98.84,1.29,1.47.31.62.5,1.36.5,2.15s-.18,1.53-.5,2.15c-.32.63-.76,1.14-1.29,1.47-.45.28-.6.86-.34,1.33,2.36,4.23,5.05,6.46,8.09,7.64,3,1.16,6.24,1.26,9.81,1.26h135.84c3.5,0,6.87-.13,9.99-1.24,3.18-1.14,6.05-3.27,8.46-7.25h0c.03-.07.06-.12.08-.19.19-.52-.08-1.09-.59-1.28Zm-8.63,6.84c-2.83,1.01-6,1.13-9.32,1.13H36.13c-3.38,0-6.43-.09-9.09-1.12-2.45-.95-4.65-2.72-6.64-6.01.5-.46.92-1.03,1.24-1.67.45-.9.71-1.94.71-3.05s-.26-2.15-.71-3.05c-.32-.64-.75-1.21-1.24-1.67,2.03-3.35,4.27-5.13,6.76-6.06,2.71-1.01,5.81-1.07,9.24-1.07h136.36c3.17,0,6.19.22,8.89,1.28,2.41.95,4.61,2.58,6.5,5.38-.62.43-1.16,1-1.58,1.68-.61.99-.98,2.21-.98,3.52s.36,2.52.98,3.51c.42.68.96,1.25,1.58,1.68-2.01,2.97-4.33,4.62-6.87,5.53Z"/>
      <path class="cls-2" d="m172.74,3.46H35.28c-2.16,0-4.6,1.3-6.41,3.37-1.62,1.85-2.75,4.32-2.75,7.02s1.13,5.17,2.75,7.02c1.81,2.07,4.25,3.37,6.41,3.37h137.47c2.19,0,4.93-1.35,6.98-3.48,1.77-1.83,3.04-4.26,3.04-6.91s-1.27-5.08-3.04-6.91c-2.05-2.13-4.79-3.48-6.98-3.48Zm6.27,16.61c-1.87,1.94-4.33,3.17-6.27,3.17H35.28c-1.88,0-4.04-1.17-5.66-3.03-1.47-1.68-2.5-3.92-2.5-6.36s1.03-4.68,2.5-6.36c1.63-1.86,3.78-3.03,5.66-3.03h137.47c1.94,0,4.39,1.23,6.27,3.17,1.6,1.67,2.76,3.85,2.76,6.22s-1.16,4.55-2.76,6.22Z"/>
      <path class="cls-2" d="m193.6,11.85c-.51-.51-1.22-.83-2-.83s-1.48.32-2,.83h0c-.51.51-.83,1.22-.83,2s.32,1.49.83,2c.51.51,1.22.83,2,.83s1.49-.32,2-.83c.51-.51.83-1.22.83-2s-.3-1.46-.8-1.97l-.03-.03Zm-.71,3.29c-.33.33-.79.53-1.29.53s-.96-.2-1.29-.53c-.33-.33-.54-.79-.54-1.29s.2-.96.53-1.29c.33-.33.79-.53,1.29-.53s.96.21,1.29.54l.02.02c.32.33.51.78.51,1.27s-.2.96-.53,1.29Z"/>
      <path class="cls-2" d="m19.59,13.85c0-.78-.32-1.48-.83-2-.51-.51-1.22-.83-2-.83s-1.48.32-2,.83h0c-.51.51-.83,1.22-.83,2s.32,1.49.83,2l.03.03c.51.49,1.2.8,1.97.8s1.49-.32,2-.83c.51-.51.83-1.22.83-2Zm-1.53,1.29c-.33.33-.79.53-1.29.53s-.94-.19-1.27-.51l-.02-.02c-.33-.33-.54-.79-.54-1.29s.2-.96.53-1.29c.33-.33.79-.53,1.29-.53s.96.21,1.29.53c.33.33.53.79.53,1.29s-.21.96-.54,1.29Z"/>
    </g>
  </g>
</svg>