<svg width="587" height="587" viewBox="0 0 587 587" fill="none" xmlns="http://www.w3.org/2000/svg">
<path d="M587 293.5C587 455.596 455.596 587 293.5 587C131.404 587 0 455.596 0 293.5C0 131.404 131.404 0 293.5 0C455.596 0 587 131.404 587 293.5Z" fill="black"/>
<path fill-rule="evenodd" clip-rule="evenodd" d="M498.61 325.8C485.18 366.15 453.6 397.78 413.32 411.34C373.03 424.79 328.77 418.44 293.86 394.34C320.07 362.38 357.25 347.22 405.15 348.61C437.92 350.22 470.36 342.27 498.61 325.8Z" fill="#FFC0CB"/>
<path fill-rule="evenodd" clip-rule="evenodd" d="M369.38 191.52C391.3 225.09 397.09 266.62 385.49 304.71C384.1 305.25 382.7 305.68 381.19 306.11C374.74 308.16 368.41 310.41 362.28 313C362.17 291.59 357.33 270.39 349.6 249.84C359.69 231.87 366.36 212.07 369.37 191.53L369.38 191.52Z" fill="#FFC0CB"/>
<path fill-rule="evenodd" clip-rule="evenodd" d="M464.34 261.56C464.77 288.89 457.04 315.25 442.54 337.52C430.4 339.78 417.94 340.64 405.48 340.21C389.69 339.57 374.01 340.75 358.96 344.3C360.57 337.09 361.54 329.78 362.07 322.57C368.84 319.45 376.04 316.65 383.67 314.18C415.04 304.82 443.08 286.53 464.34 261.57V261.56Z" fill="#FFC0CB"/>
<path fill-rule="evenodd" clip-rule="evenodd" d="M218.34 191.52C196.42 225.09 190.63 266.62 202.12 304.71C203.62 305.25 205.02 305.68 206.42 306.11C213.62 308.37 220.6 310.84 227.26 313.86C227.26 302.45 228.44 291.05 230.7 279.86C232.63 270.07 235.43 260.49 238.76 251.13C228.34 232.84 221.35 212.61 218.35 191.53L218.34 191.52Z" fill="#FFC0CB"/>
<path fill-rule="evenodd" clip-rule="evenodd" d="M123.37 261.56C122.94 288.89 130.68 315.25 145.18 337.52C157.32 339.78 169.78 340.64 182.13 340.21C198.67 339.57 215.11 340.86 230.79 344.84C229.72 340.32 228.86 335.8 228.32 331.17L227.89 330.96L227.57 323.43C220.27 319.99 212.31 316.87 203.94 314.18C172.57 304.82 144.64 286.53 123.37 261.57V261.56Z" fill="#FFC0CB"/>
<path fill-rule="evenodd" clip-rule="evenodd" d="M89 325.8C102.43 366.15 134.01 397.78 174.29 411.34C214.58 424.79 258.84 418.44 293.85 394.34C267.53 362.38 230.47 347.22 182.45 348.61C149.79 350.22 117.35 342.27 88.99 325.8H89Z" fill="#FFC0CB"/>
<path fill-rule="evenodd" clip-rule="evenodd" d="M294.39 170C262.27 213.15 233.27 264.68 235.84 320.2L236.16 326.01H236.27L236.7 330.1C237.45 335.81 238.52 341.51 240.03 347.1L240.14 347.53C250.77 350.98 260.98 355.82 270.65 362.06C279.14 367.65 286.87 374.22 293.85 381.53C300.83 374.22 308.57 367.65 317.06 362.06C327.38 355.39 338.22 350.33 349.61 346.89C366.05 285.02 331.78 220.25 294.39 170.01V170Z" fill="#FFC0CB"/>
</svg>
