<?xml version="1.0" encoding="UTF-8"?>
<svg id="Calque_2" data-name="Calque 2" xmlns="http://www.w3.org/2000/svg" viewBox="0 0 409.61 248.27">
  <defs>
    <style>
      .cls-1 {
        fill: #1a1a1a;
        fill-rule: evenodd;
        stroke-width: 0px;
      }
    </style>
  </defs>
  <g id="Layer_1" data-name="Layer 1">
    <g>
      <path class="cls-1" d="m409.61,155.8c-13.43,40.35-45.01,71.98-85.29,85.54-40.29,13.45-84.55,7.1-119.46-17,26.21-31.96,63.39-47.12,111.29-45.73,32.77,1.61,65.21-6.34,93.46-22.81h0Z"/>
      <path class="cls-1" d="m280.38,21.52c21.92,33.57,27.71,75.1,16.11,113.19-1.39.54-2.79.97-4.3,1.4-6.45,2.05-12.78,4.3-18.91,6.89-.11-21.41-4.95-42.61-12.68-63.16,10.09-17.97,16.76-37.77,19.77-58.31h0Z"/>
      <path class="cls-1" d="m375.34,91.56c.43,27.33-7.3,53.69-21.8,75.96-12.14,2.26-24.6,3.12-37.06,2.69-15.79-.64-31.47.54-46.52,4.09,1.61-7.21,2.58-14.52,3.11-21.73,6.77-3.12,13.97-5.92,21.6-8.39,31.37-9.36,59.41-27.65,80.67-52.61h0Z"/>
      <path class="cls-1" d="m129.34,21.52c-21.92,33.57-27.71,75.1-16.22,113.19,1.5.54,2.9.97,4.3,1.4,7.2,2.26,14.18,4.73,20.84,7.75,0-11.41,1.18-22.81,3.44-34,1.93-9.79,4.73-19.37,8.06-28.73-10.42-18.29-17.41-38.52-20.41-59.6h0Z"/>
      <path class="cls-1" d="m34.37,91.56c-.43,27.33,7.31,53.69,21.81,75.96,12.14,2.26,24.6,3.12,36.95,2.69,16.54-.64,32.98.65,48.66,4.63-1.07-4.52-1.93-9.04-2.47-13.67l-.43-.21-.32-7.53c-7.3-3.44-15.26-6.56-23.63-9.25-31.37-9.36-59.3-27.65-80.57-52.61h0Z"/>
      <path class="cls-1" d="m0,155.8c13.43,40.35,45.01,71.98,85.29,85.54,40.29,13.45,84.55,7.1,119.56-17-26.32-31.96-63.38-47.12-111.4-45.73-32.66,1.61-65.1-6.34-93.46-22.81h0Z"/>
      <path class="cls-1" d="m205.39,0c-32.12,43.15-61.12,94.68-58.55,150.2l.32,5.81h.11l.43,4.09c.75,5.71,1.82,11.41,3.33,17l.11.43c10.63,3.45,20.84,8.29,30.51,14.53,8.49,5.59,16.22,12.16,23.2,19.47,6.98-7.31,14.72-13.88,23.21-19.47,10.32-6.67,21.16-11.73,32.55-15.17,16.44-61.87-17.83-126.64-55.22-176.88h0Z"/>
    </g>
  </g>
</svg>