<svg width="64" height="25" viewBox="0 0 64 25" fill="none" xmlns="http://www.w3.org/2000/svg">
<path d="M63.9161 7.9352C63.7935 7.77371 63.674 7.61528 63.5384 7.45988C63.3687 7.26387 63.1537 7.10542 62.9428 6.95003C62.7761 6.82612 62.5712 6.74386 62.3814 6.67073C62.1605 6.5844 61.9425 6.51533 61.7145 6.45338C60.904 6.23298 60.0664 6.16798 59.2288 6.22994C58.3771 6.29494 57.5535 6.50924 56.7571 6.8119C55.9536 7.11457 55.1944 7.51472 54.4552 7.95145C53.7602 8.36786 53.1003 8.8503 52.4636 9.35304C51.7244 9.935 51.0033 10.5444 50.2912 11.1568C49.549 11.7906 48.8198 12.4416 48.1017 13.1018C47.6578 13.5121 47.232 13.9387 46.8011 14.3622C46.7328 14.416 46.6645 14.4719 46.5962 14.5267C45.3448 15.4956 43.8433 16.5824 42.1922 17.3004C41.3988 17.6305 40.5481 17.8682 39.7326 17.985C39.378 18.0347 38.9813 18.0611 38.5525 18.0611C38.0935 18.0611 37.6817 18.0347 37.3282 17.9819C36.5147 17.8672 35.7022 17.6437 34.9127 17.3177C34.2499 17.0282 33.5629 16.6199 32.9262 16.1345C32.5455 15.8328 32.191 15.5078 31.8716 15.1676C31.8777 15.133 31.8666 15.0934 31.8415 15.0619L31.7621 14.9563C31.497 14.6059 31.2228 14.2433 30.9838 13.8604C30.7578 13.4908 30.5459 13.0723 30.338 12.5807C30.0046 11.7591 29.7695 10.8938 29.641 10.0112C29.5345 9.17225 29.5275 8.3506 29.6279 7.5584C29.7233 6.92159 29.883 6.31525 30.104 5.7597C30.2948 5.30063 30.57 4.81515 30.8964 4.37741C31.1455 4.06053 31.4086 3.79341 31.6979 3.56286C32.0253 3.32825 32.3738 3.12512 32.7343 2.95754C33.1431 2.79199 33.5569 2.67621 33.9988 2.6041C34.1826 2.5848 34.3644 2.57465 34.5472 2.57465C34.7219 2.57465 34.8967 2.58379 35.0724 2.6041C35.3366 2.6498 35.5997 2.72497 35.8769 2.83465C36.1622 2.97177 36.4283 3.13223 36.6884 3.32216C36.9787 3.56083 37.2438 3.83302 37.4768 4.12959C37.6375 4.35303 37.7661 4.5714 37.8705 4.79586C37.9669 5.0518 38.0393 5.33008 38.0915 5.64798C38.1286 5.97908 38.1337 6.2797 38.1086 6.5651C38.0553 6.90839 37.972 7.23542 37.8605 7.53707C37.7641 7.75239 37.6476 7.95349 37.504 8.15154C37.3664 8.32623 37.2056 8.48974 37.0118 8.65224C36.8391 8.78123 36.6503 8.89193 36.4353 8.99248C36.2455 9.06764 36.0426 9.12248 35.7976 9.16412C35.662 9.17834 35.5254 9.18546 35.3898 9.18546C35.2221 9.18546 35.0554 9.1753 34.8876 9.15803L34.8666 9.15499L34.8696 9.15702C34.8545 9.15499 34.8384 9.15397 34.8234 9.15193C34.5181 9.10014 34.1495 9.00365 33.7728 8.86654C33.6704 8.76599 33.583 8.6624 33.5047 8.55677C33.4223 8.4806 33.339 8.43388 33.2476 8.41255C33.2004 8.39427 33.1511 8.38513 33.0989 8.38513C33.0055 8.38513 32.9061 8.41357 32.8117 8.46841C32.6831 8.54052 32.5877 8.66342 32.5455 8.81475C32.5074 8.9671 32.5295 9.12045 32.6078 9.24842C32.8539 9.68413 33.1532 10.0559 33.4987 10.3524C33.6704 10.4946 33.8662 10.6206 34.0792 10.7292C34.2158 10.8054 34.3634 10.8643 34.5301 10.909C34.8405 11.0827 35.1618 11.2178 35.4832 11.3122C35.7222 11.3843 35.9954 11.429 36.3429 11.4534C36.4152 11.4564 36.4865 11.4605 36.5579 11.4605C36.824 11.4605 37.0861 11.426 37.3453 11.3884C37.6405 11.3406 37.9167 11.231 38.1477 11.1294C38.2863 11.102 38.4259 11.0644 38.5625 11.0227C38.913 10.9232 39.2636 10.7617 39.603 10.5434C40.1825 10.1727 40.6937 9.63437 41.1206 8.94272C41.3214 8.60959 41.4721 8.24192 41.5806 7.95958C41.7151 7.61223 41.8126 7.22933 41.8809 6.79057C41.9401 6.44729 41.9692 6.0715 41.9692 5.67337C41.9662 5.26914 41.922 4.86695 41.8367 4.44546C41.685 3.68068 41.3476 2.90777 40.8584 2.21104C40.5923 1.83221 40.284 1.48893 39.9445 1.19033C39.597 0.887667 39.1973 0.633754 38.7574 0.434688C38.1256 0.146246 37.4216 0 36.6663 0C36.5096 0 36.353 0.00710775 36.1963 0.0172642C35.3456 0.0903903 34.4919 0.329068 33.585 0.747512C32.7906 1.10806 32.0032 1.62705 31.2439 2.29128C30.562 2.88848 29.9774 3.60248 29.5054 4.41398C29.0605 5.16454 28.7441 6.01767 28.5643 6.95104C28.243 8.63294 28.4498 10.4489 29.1609 12.2039C29.3527 12.6772 29.5867 13.1485 29.8559 13.6065C29.3136 13.0175 28.6437 12.3868 27.6966 11.5499C25.9772 10.0325 24.3893 8.77209 22.8436 7.69652C21.0318 6.42392 19.3023 5.45196 17.5578 4.72375C15.6917 3.93866 13.8387 3.51818 12.049 3.47349H11.814C11.0155 3.47349 10.1679 3.56896 9.29611 3.75584C8.39824 3.96506 7.48831 4.31038 6.59043 4.77961C5.71565 5.23258 4.85491 5.8318 3.96005 6.61283C3.07422 7.38066 2.32297 8.20637 1.72539 9.06561C1.21217 9.79077 0.792384 10.6358 0.478026 11.5742C0.209868 12.3878 0.052169 13.2734 0.00797816 14.2068C-0.0633299 15.8836 0.344443 17.6437 1.18708 19.2972C1.9775 20.8521 3.19676 22.2354 4.71431 23.2978C5.46154 23.8168 6.29112 24.2423 7.18197 24.5623C7.883 24.8233 8.68747 24.9695 9.57129 24.997H9.70085L9.83041 25C10.5274 25 11.2797 24.9025 12.0661 24.7105C12.8374 24.5338 13.6409 24.2261 14.4544 23.7975C16.0001 22.985 17.2474 21.7632 17.9686 20.3575C18.1343 20.0396 18.2809 19.6719 18.4054 19.2647C18.528 18.8452 18.6043 18.4186 18.6375 17.9616C18.6736 17.6193 18.6656 17.2161 18.6133 16.6931C18.5832 16.3264 18.5169 15.9049 18.4155 15.4388C18.2036 14.479 17.7175 13.1292 16.6017 12.1532C16.3857 11.9632 16.1658 11.8017 15.9499 11.6738C15.7399 11.5438 15.4889 11.4219 15.1825 11.301C14.7607 11.1263 14.2565 11.0156 13.6409 10.9628C13.5143 10.9557 13.3848 10.9486 13.2592 10.9486C12.9047 10.9486 12.517 10.9862 12.039 11.0654C11.5247 11.1629 11.0236 11.3163 10.5495 11.5204C9.62151 11.9033 8.80599 12.4253 8.12605 13.0713C7.46218 13.6908 6.97005 14.4384 6.70089 15.2336C6.58238 15.6175 6.52314 16.0167 6.53017 16.3904C6.53318 16.5946 6.56028 16.7946 6.60146 17.0018C6.65067 17.2283 6.73503 17.4375 6.81638 17.6336C6.96502 17.9819 7.21612 18.3384 7.56363 18.6939C7.91012 19.0483 8.34801 19.3591 8.90039 19.6455C8.94659 19.674 9.00486 19.6912 9.05809 19.6912C9.16455 19.6912 9.25995 19.6334 9.32122 19.5318C9.41663 19.4973 9.48291 19.3977 9.47588 19.2992C9.46483 18.9783 9.47388 18.6858 9.503 18.4054C9.56929 17.9616 9.67977 17.5513 9.8495 17.1166C10.0373 16.6931 10.2382 16.3437 10.4812 16.0167C10.7062 15.7343 10.9402 15.4906 11.1983 15.2712C11.4856 15.0447 11.7969 14.8578 12.1494 14.7004C12.4015 14.6059 12.6747 14.5369 12.9167 14.5084C13.0393 14.4952 13.1648 14.4881 13.2863 14.4881C13.4079 14.4881 13.5304 14.4952 13.6529 14.5084C13.905 14.545 14.1812 14.6191 14.4745 14.7288C14.7768 14.873 15.0479 15.0355 15.303 15.2265C15.5672 15.4418 15.8213 15.7028 16.0774 16.0238C16.2993 16.3193 16.4882 16.6443 16.6378 16.9896C16.7744 17.336 16.8688 17.6935 16.9261 18.0825C16.9632 18.4654 16.9602 18.8472 16.916 19.2169C16.8537 19.6557 16.7443 20.063 16.5826 20.4611C16.4269 20.8034 16.223 21.1487 15.991 21.4615C15.8454 21.6504 15.6817 21.8363 15.512 22.015C15.3724 22.1633 15.2127 22.2933 15.053 22.4203C15.0168 22.4558 14.9214 22.5015 14.9566 22.5371C14.4172 22.9139 13.9241 23.2135 13.4511 23.439C13.2472 23.5243 13.0875 23.5801 12.9248 23.6248C12.8133 23.6563 12.7249 23.7487 12.6938 23.8655C12.1052 24.0555 11.5087 24.1946 10.9272 24.2759C10.5867 24.3287 10.191 24.3551 9.75007 24.3551C9.36742 24.3551 9.01589 24.3327 8.70555 24.2901C8.40325 24.2454 8.09692 24.1834 7.80064 24.1144C7.45414 24.0169 7.1207 23.8818 6.83446 23.764C6.10732 23.4511 5.35005 23.0053 4.644 22.4741C4.53453 22.3878 4.43108 22.2994 4.32763 22.211L4.25334 22.1471C3.83754 21.5763 3.50509 21.0075 3.23793 20.4113C2.96877 19.7522 2.78799 19.1103 2.68354 18.4511C2.63633 18.0286 2.60521 17.6396 2.59818 17.2608C2.59818 16.8871 2.62428 16.5092 2.68354 16.0359C2.73074 15.6906 2.82113 15.2559 2.93864 14.8111C3.05012 14.3906 3.19778 13.959 3.3876 13.4938C3.5734 13.0459 3.80138 12.5818 4.08461 12.076C4.31561 11.6636 4.60485 11.231 4.99353 10.714C5.42942 10.1462 5.85123 9.65772 6.2831 9.221C6.69187 8.80052 7.16288 8.37599 7.7223 7.92301C8.72363 7.14706 9.81032 6.50416 10.9512 6.01361C11.9465 5.60735 12.968 5.32703 13.9894 5.18078C14.3299 5.13914 14.6733 5.11172 15.0168 5.09141C15.2207 5.08125 15.4216 5.0782 15.6255 5.0782C15.9599 5.0782 16.2662 5.11578 16.5263 5.15031L16.6398 5.17062L16.7533 5.195C17.0556 5.30469 17.3579 5.42555 17.6683 5.55657C19.9331 6.53463 22.227 7.95856 24.8885 10.0345C27.339 11.9602 29.6279 14.0636 31.5442 15.8663C31.5944 15.91 31.6396 15.9334 31.6918 15.9445C31.8887 16.1426 32.1167 16.3417 32.3487 16.5316C33.0598 17.1105 33.8271 17.5736 34.6285 17.9098C35.4049 18.244 36.2726 18.4806 37.2047 18.6126C37.6576 18.6726 38.0895 18.702 38.4892 18.702C38.8186 18.702 39.1621 18.6807 39.5699 18.637C40.3111 18.5426 41.0433 18.3638 41.7473 18.1058C42.9706 17.6742 44.1858 16.9947 45.6853 15.9049C45.8952 15.7526 46.1001 15.5891 46.308 15.4306C46.319 15.4235 46.3331 15.4256 46.3421 15.4164C46.3662 15.3931 46.3913 15.3717 46.4144 15.3494C47.0763 14.8426 47.7291 14.3216 48.3438 13.8147L49.3411 13.0022C49.5148 12.8641 49.6846 12.73 49.8553 12.6C50.0813 12.4243 50.3233 12.2425 50.5664 12.0618C49.6444 13.115 48.7455 14.1875 47.8436 15.258C46.6364 16.687 45.3589 18.0683 43.8955 19.2251C43.9026 19.22 43.9106 19.2149 43.9176 19.2098C42.9927 19.9228 41.9833 20.4885 40.9157 20.9588C40.4467 21.1517 39.9666 21.3142 39.4815 21.4615C39.1852 21.5539 38.8819 21.6098 38.5796 21.6748C38.3325 21.7296 38.0814 21.7753 37.8303 21.8139C37.3131 21.8749 36.7919 21.8718 36.2706 21.8546C35.7504 21.8393 35.2241 21.8149 34.7048 21.7581C34.2599 21.6921 33.816 21.6139 33.3761 21.5235C32.8719 21.4199 32.3718 21.2787 31.8676 21.169C31.3564 21.0593 30.8432 20.9628 30.329 20.8694C30.0497 20.8206 29.7675 20.7556 29.4984 20.6693C29.2814 20.6002 29.0705 20.517 28.8606 20.4316C28.5814 20.3108 28.3042 20.1859 28.03 20.0569C27.8733 19.9675 27.7026 19.9188 27.5228 19.9188C27.2577 19.9188 26.9986 20.0254 26.8118 20.2153C26.4201 20.6114 26.4271 21.2584 26.8118 21.6545C27.2507 22.1156 27.7548 22.5046 28.2761 22.8661C28.5111 23.0317 28.7531 23.1932 28.9912 23.3486C29.2704 23.5243 29.5496 23.6929 29.8489 23.831C30.1863 23.9854 30.5298 24.1235 30.8844 24.2301C31.2449 24.3368 31.6266 24.3855 32.0012 24.4302C32.3105 24.4668 32.6259 24.4841 32.9422 24.4841C33.2415 24.4841 33.5418 24.4688 33.8371 24.4404C34.1916 24.4058 34.5422 24.351 34.8927 24.2921C35.1719 24.2444 35.4481 24.2098 35.7233 24.1438C36.3329 24.0057 36.9214 23.8097 37.507 23.5964C38.0352 23.4075 38.5655 23.2318 39.0898 23.0286C39.3489 22.925 39.601 22.8052 39.8521 22.6914C40.1243 22.5675 40.3964 22.4436 40.6626 22.3055C41.5685 21.8403 42.4091 21.2624 43.2096 20.6287C43.986 20.0162 44.7251 19.351 45.4231 18.6492C46.8533 17.2029 48.1228 15.6053 49.4234 14.0422C49.566 13.8716 49.7127 13.704 49.8553 13.5344C49.5831 14.156 49.3943 14.8111 49.2909 15.4855C49.2226 15.9232 49.1854 16.3671 49.1824 16.8078C49.1754 17.2588 49.2236 17.7036 49.2879 18.1475C49.4034 18.9945 49.6655 19.804 50.0471 20.5647C50.255 20.9852 50.5202 21.3701 50.8064 21.7357C51.1298 22.1461 51.4904 22.5178 51.8931 22.8509C52.7307 23.5466 53.7009 24.0727 54.7595 24.3348C55.2687 24.4587 55.803 24.5135 56.3263 24.5135C56.3423 24.5135 56.3574 24.5135 56.3735 24.5135C56.6527 24.5105 56.9289 24.4688 57.204 24.4312C57.4591 24.3937 57.7012 24.3175 57.9432 24.221C58.0417 24.1936 58.1301 24.1418 58.2054 24.0666C58.3179 23.9529 58.3821 23.7975 58.3821 23.6401C58.3821 23.313 58.1099 23.0307 57.7825 23.0337C57.2 23.0408 56.6276 23.0439 56.0501 22.9789C55.3993 22.8773 54.7675 22.6914 54.1579 22.4467C53.6296 22.2121 53.1355 21.9277 52.6715 21.5824C52.3059 21.2797 51.9704 20.9517 51.6752 20.5809C51.3297 20.1117 51.0424 19.6151 50.8094 19.0819C50.5865 18.5243 50.4278 17.9545 50.3384 17.3593C50.2621 16.7144 50.256 16.0705 50.3293 15.4225C50.3293 15.4225 50.3293 15.4215 50.3293 15.4205C50.3334 15.3819 50.3384 15.3433 50.3434 15.3037C50.3414 15.3372 50.3374 15.3687 50.3324 15.3991C50.4388 14.6669 50.6206 13.9539 50.8978 13.2714C50.8938 13.2785 50.8908 13.2846 50.8878 13.2917C51.1147 12.7636 51.3849 12.2639 51.7254 11.8038C51.7505 11.7713 51.7796 11.7428 51.8057 11.7114C51.6531 12.0272 51.5115 12.3522 51.405 12.6843C51.2684 13.1048 51.1941 13.5486 51.1288 13.9854C51.0946 14.22 51.0605 14.4536 51.0434 14.6912C51.0233 14.9319 51.0294 15.1737 51.0334 15.4144C51.0474 15.8968 51.1047 16.3853 51.2102 16.8566C51.2513 17.0496 51.3226 17.2354 51.3969 17.4182C51.5024 17.6833 51.6179 17.9352 51.7716 18.179C52.0237 18.5781 52.34 18.9437 52.7116 19.2362C52.9326 19.4119 53.1506 19.5704 53.4097 19.6872C53.6688 19.8111 53.9239 19.8903 54.2031 19.9421C54.2734 19.9614 54.3427 19.9705 54.412 19.9705C54.4813 19.9705 54.5516 19.9614 54.6209 19.9421C54.8147 19.8873 54.9855 19.7532 55.0879 19.5775C55.1964 19.3947 55.2245 19.1712 55.1693 18.9651C55.108 18.7518 54.9784 18.6208 54.8087 18.4938C54.8047 18.4908 54.7996 18.4867 54.7956 18.4836C54.412 18.1658 54.0414 17.8367 53.724 17.4518C53.3996 16.9988 53.1465 16.5042 52.9225 15.9923C52.6966 15.4144 52.568 14.8162 52.4827 14.2037C52.4455 13.8493 52.4405 13.4938 52.4535 13.1363C52.4626 12.7676 52.4786 12.3979 52.5208 12.0353C52.5198 12.0414 52.5188 12.0465 52.5178 12.0526C52.5188 12.0455 52.5198 12.0374 52.5218 12.0303C52.5248 12.0018 52.5278 11.9744 52.5319 11.946C52.5298 11.9673 52.5278 11.9907 52.5248 12.013C52.5761 11.691 52.6403 11.3772 52.7548 11.0725C52.8101 10.9415 52.8743 10.8156 52.9406 10.6896C52.9537 10.6663 52.9447 10.6409 52.9507 10.6155C53.2128 10.4316 53.482 10.263 53.7722 10.1229C53.7793 10.1198 53.7793 10.1097 53.7853 10.1056C53.8556 10.0741 53.9199 10.0345 53.9912 10.0041C54.7735 9.67398 55.5901 9.44647 56.4166 9.32967C56.72 9.286 57.0795 9.26467 57.4842 9.26467C57.8006 9.26467 58.113 9.28194 58.4193 9.31952C58.7367 9.36319 59.052 9.44749 59.3574 9.57038C59.6928 9.72476 60.0152 9.9218 60.3426 10.1716C60.6419 10.4205 60.9181 10.7008 61.1611 11.0065C61.372 11.2919 61.5598 11.621 61.7045 11.9582C61.7788 12.1532 61.8401 12.3461 61.8813 12.5452C61.8602 12.726 61.833 12.8286 61.7929 12.9291C61.7557 13.0104 61.7115 13.0865 61.6573 13.1617C61.586 13.2511 61.5086 13.3293 61.4203 13.4014C61.2967 13.4887 61.1672 13.5618 61.0236 13.6238C60.8608 13.6817 60.6951 13.7233 60.5254 13.7467C60.443 13.7569 60.3597 13.7609 60.2763 13.7609C60.1849 13.7609 60.0935 13.7558 60.0031 13.7467C59.8876 13.7325 59.7259 13.6908 59.5693 13.6299C59.4638 13.5832 59.3704 13.5283 59.285 13.4623C59.2278 13.4115 59.1766 13.3628 59.1263 13.3049C59.0711 13.2328 59.0239 13.1525 58.9817 13.0591C58.9476 12.9626 58.9245 12.8641 58.9114 12.7585C58.9114 12.7107 58.9114 12.6082 58.9184 12.5015C58.9215 12.4446 58.9004 12.3898 58.8582 12.3471C58.8009 12.1196 58.6423 11.9967 58.4775 11.9967C58.4334 11.9967 58.4042 12.0049 58.3721 12.0181C58.1953 12.0729 58.0216 12.142 57.8508 12.2253C57.7072 12.2933 57.5777 12.3878 57.4471 12.4883C57.3286 12.5848 57.2302 12.6945 57.1187 12.855C57.0293 12.9829 56.954 13.1282 56.8826 13.311C56.8385 13.4308 56.8214 13.5608 56.8043 13.6858C56.7762 13.8919 56.7862 14.0423 56.8003 14.1621C56.8415 14.4841 56.9469 14.7938 57.1147 15.0853C57.2442 15.3311 57.4481 15.5749 57.7022 15.7902C57.9673 16.0095 58.2717 16.1741 58.6071 16.2807C58.814 16.3569 59.051 16.3945 59.3111 16.3945C59.4136 16.3945 59.516 16.3914 59.6144 16.3803C59.9911 16.3427 60.3798 16.2096 60.8026 15.973C60.9834 15.8735 61.1471 15.7485 61.3108 15.6216C61.4905 15.4794 61.6452 15.3321 61.826 15.128C62.0751 14.8243 62.2699 14.4627 62.4035 14.0544C62.5039 13.7396 62.5411 13.3709 62.513 12.9596C62.4889 12.5757 62.3904 12.1765 62.2197 11.7723C61.9204 11.0431 61.4082 10.3687 60.7363 9.82328C60.0865 9.28397 59.3252 8.93256 58.5358 8.80865C58.1903 8.76498 57.8659 8.74365 57.5435 8.74365C57.3216 8.74365 57.1036 8.75076 56.8857 8.76396C56.3403 8.80561 55.803 8.89599 55.2426 9.0392C54.5355 9.21592 53.8104 9.49522 53.0471 9.87914C53.1867 9.78164 53.3233 9.68007 53.4659 9.58562C54.2011 9.09608 54.9905 8.66748 55.8 8.31708C56.2499 8.13122 56.7059 7.96364 57.1739 7.82348C57.6299 7.68738 58.0959 7.59293 58.5669 7.52184C59.1314 7.45277 59.6928 7.44058 60.2562 7.5066C60.6067 7.56551 60.9492 7.65082 61.2827 7.77575C61.5488 7.89661 61.8049 8.03575 62.053 8.19215C62.3834 8.40544 62.7038 8.62584 63.0443 8.81881C63.2923 8.95998 63.6097 8.92545 63.8106 8.71928C63.8919 8.64006 63.9472 8.54357 63.9743 8.43693C64.0175 8.2795 64.0115 8.06926 63.9161 7.9352Z" fill="white"/>
</svg>
