<svg width="65" height="26" viewBox="0 0 65 26" fill="none" xmlns="http://www.w3.org/2000/svg">
<path d="M0.945766 8.74282C1.0683 8.58133 1.18782 8.42289 1.3234 8.2675C1.49314 8.07148 1.70808 7.91304 1.91899 7.75764C2.08571 7.63373 2.29059 7.55147 2.48041 7.47835C2.70136 7.39202 2.91931 7.32295 3.14729 7.261C3.95779 7.0406 4.79542 6.9756 5.63304 7.03755C6.48471 7.10255 7.30827 7.31686 8.10471 7.61952C8.90818 7.92218 9.66745 8.32234 10.4066 8.75907C11.1016 9.17548 11.7615 9.65791 12.3983 10.1607C13.1374 10.7426 13.8586 11.352 14.5706 11.9644C15.3128 12.5982 16.042 13.2492 16.7601 13.9094C17.204 14.3197 17.6298 14.7463 18.0607 15.1698C18.129 15.2236 18.1973 15.2795 18.2656 15.3343C19.517 16.3032 21.0185 17.39 22.6696 18.108C23.463 18.4381 24.3137 18.6758 25.1292 18.7926C25.4838 18.8424 25.8805 18.8688 26.3093 18.8688C26.7683 18.8688 27.1801 18.8423 27.5336 18.7895C28.3472 18.6748 29.1597 18.4513 29.9491 18.1253C30.6119 17.8358 31.2989 17.4276 31.9356 16.9421C32.3163 16.6404 32.6708 16.3154 32.9902 15.9752C32.9842 15.9407 32.9952 15.9011 33.0203 15.8696L33.0997 15.7639C33.3648 15.4135 33.639 15.051 33.878 14.6681C34.104 14.2984 34.3159 13.8799 34.5238 13.3884C34.8573 12.5667 35.0923 11.7014 35.2208 10.8188C35.3273 9.97987 35.3343 9.15822 35.2339 8.36602C35.1385 7.72921 34.9788 7.12287 34.7578 6.56731C34.567 6.10825 34.2918 5.62277 33.9654 5.18503C33.7163 4.86815 33.4532 4.60103 33.1639 4.37048C32.8365 4.13587 32.488 3.93274 32.1275 3.76516C31.7187 3.59961 31.3049 3.48383 30.863 3.41172C30.6792 3.39242 30.4974 3.38226 30.3146 3.38226C30.1399 3.38226 29.9651 3.3914 29.7894 3.41172C29.5252 3.45742 29.2621 3.53258 28.9849 3.64227C28.6996 3.77938 28.4335 3.93985 28.1734 4.12977C27.8831 4.36845 27.618 4.64064 27.385 4.93721C27.2243 5.16065 27.0957 5.37902 26.9913 5.60347C26.8949 5.85942 26.8226 6.1377 26.7703 6.45559C26.7332 6.78669 26.7281 7.08732 26.7533 7.37272C26.8065 7.716 26.8899 8.04304 27.0013 8.34469C27.0978 8.56 27.2142 8.7611 27.3579 8.95915C27.4955 9.13384 27.6562 9.29736 27.85 9.45986C28.0228 9.58885 28.2115 9.69955 28.4265 9.8001C28.6163 9.87526 28.8192 9.9301 29.0642 9.97174C29.1998 9.98596 29.3364 9.99307 29.472 9.99307C29.6397 9.99307 29.8064 9.98292 29.9742 9.96565L29.9953 9.9626L29.9923 9.96464C30.0073 9.9626 30.0234 9.96158 30.0384 9.95955C30.3438 9.90775 30.7123 9.81127 31.089 9.67416C31.1914 9.57361 31.2788 9.47001 31.3571 9.36439C31.4395 9.28821 31.5229 9.2415 31.6143 9.22017C31.6615 9.20189 31.7107 9.19275 31.7629 9.19275C31.8563 9.19275 31.9557 9.22118 32.0501 9.27603C32.1787 9.34814 32.2741 9.47104 32.3163 9.62237C32.3545 9.77471 32.3323 9.92807 32.254 10.056C32.0079 10.4917 31.7087 10.8635 31.3632 11.16C31.1914 11.3022 30.9956 11.4282 30.7827 11.5368C30.6461 11.613 30.4984 11.6719 30.3317 11.7166C30.0214 11.8903 29.7 12.0254 29.3786 12.1198C29.1396 12.1919 28.8664 12.2366 28.5189 12.261C28.4466 12.264 28.3753 12.2681 28.304 12.2681C28.0378 12.2681 27.7757 12.2336 27.5166 12.196C27.2213 12.1483 26.9451 12.0386 26.7141 11.937C26.5755 11.9096 26.4359 11.872 26.2993 11.8304C25.9488 11.7308 25.5983 11.5693 25.2588 11.351C24.6793 10.9803 24.1681 10.442 23.7413 9.75034C23.5404 9.41721 23.3897 9.04954 23.2813 8.76719C23.1467 8.41984 23.0492 8.03695 22.981 7.59819C22.9217 7.2549 22.8926 6.87912 22.8926 6.48099C22.8956 6.07676 22.9398 5.67457 23.0251 5.25308C23.1768 4.4883 23.5143 3.71539 24.0034 3.01866C24.2695 2.63983 24.5779 2.29654 24.9173 1.99795C25.2648 1.69528 25.6646 1.44137 26.1045 1.24231C26.7362 0.953863 27.4402 0.807617 28.1955 0.807617C28.3522 0.807617 28.5088 0.814725 28.6655 0.824881C29.5162 0.898007 30.3699 1.13668 31.2768 1.55513C32.0712 1.91568 32.8586 2.43467 33.6179 3.0989C34.2998 3.6961 34.8844 4.4101 35.3564 5.22159C35.8014 5.97215 36.1177 6.82528 36.2975 7.75866C36.6189 9.44056 36.412 11.2565 35.7009 13.0116C35.5091 13.4848 35.2751 13.9561 35.0059 14.4142C35.5483 13.8251 36.2181 13.1944 37.1652 12.3575C38.8847 10.8401 40.4725 9.5797 42.0182 8.50414C43.83 7.23154 45.5595 6.25958 47.304 5.53136C49.1701 4.74627 51.0231 4.3258 52.8128 4.28111H53.0478C53.8463 4.28111 54.6939 4.37658 55.5657 4.56346C56.4636 4.77268 57.3735 5.118 58.2714 5.58722C59.1462 6.0402 60.0069 6.63942 60.9018 7.42045C61.7876 8.18827 62.5388 9.01399 63.1364 9.87322C63.6496 10.5984 64.0694 11.4434 64.3838 12.3819C64.6519 13.1954 64.8096 14.081 64.8538 15.0144C64.9251 16.6912 64.5174 18.4513 63.6747 20.1048C62.8843 21.6597 61.6651 23.043 60.1475 24.1054C59.4003 24.6244 58.5707 25.0499 57.6798 25.3699C56.9788 25.6309 56.1743 25.7772 55.2905 25.8046H55.161L55.0314 25.8076C54.3344 25.8076 53.5821 25.7101 52.7957 25.5182C52.0244 25.3414 51.2209 25.0337 50.4074 24.6051C48.8618 23.7926 47.6144 22.5708 46.8933 21.1651C46.7275 20.8472 46.5809 20.4796 46.4564 20.0723C46.3338 19.6528 46.2575 19.2263 46.2244 18.7692C46.1882 18.427 46.1963 18.0237 46.2485 17.5007C46.2786 17.134 46.3449 16.7126 46.4463 16.2464C46.6582 15.2866 47.1443 13.9368 48.2602 12.9608C48.4761 12.7708 48.696 12.6094 48.912 12.4814C49.1219 12.3514 49.373 12.2295 49.6793 12.1087C50.1011 11.934 50.6053 11.8233 51.2209 11.7704C51.3475 11.7633 51.4771 11.7562 51.6026 11.7562C51.9571 11.7562 52.3448 11.7938 52.8229 11.873C53.3371 11.9705 53.8383 12.1239 54.3123 12.328C55.2403 12.7109 56.0558 13.233 56.7358 13.8789C57.3996 14.4985 57.8918 15.246 58.1609 16.0412C58.2794 16.4251 58.3387 16.8243 58.3316 17.198C58.3286 17.4022 58.3015 17.6023 58.2604 17.8094C58.2111 18.0359 58.1268 18.2452 58.0454 18.4412C57.8968 18.7895 57.6457 19.146 57.2982 19.5015C56.9517 19.856 56.5138 20.1667 55.9614 20.4532C55.9152 20.4816 55.857 20.4989 55.8037 20.4989C55.6973 20.4989 55.6019 20.441 55.5406 20.3394C55.4452 20.3049 55.3789 20.2053 55.3859 20.1068C55.397 19.7859 55.3879 19.4934 55.3588 19.2131C55.2925 18.7692 55.182 18.3589 55.0123 17.9242C54.8245 17.5007 54.6236 17.1513 54.3806 16.8243C54.1556 16.5419 53.9216 16.2982 53.6635 16.0788C53.3763 15.8523 53.0649 15.6654 52.7124 15.508C52.4603 15.4135 52.1871 15.3445 51.9451 15.316C51.8226 15.3028 51.697 15.2957 51.5755 15.2957C51.4539 15.2957 51.3314 15.3028 51.2089 15.316C50.9568 15.3526 50.6806 15.4268 50.3874 15.5364C50.0851 15.6807 49.8139 15.8432 49.5588 16.0341C49.2946 16.2494 49.0405 16.5104 48.7844 16.8314C48.5625 17.1269 48.3736 17.4519 48.224 17.7973C48.0874 18.1436 47.993 18.5011 47.9358 18.8901C47.8986 19.273 47.9016 19.6549 47.9458 20.0246C48.0081 20.4633 48.1175 20.8706 48.2792 21.2687C48.4349 21.611 48.6388 21.9563 48.8708 22.2691C49.0164 22.458 49.1801 22.6439 49.3499 22.8226C49.4895 22.9709 49.6492 23.1009 49.8088 23.2279C49.845 23.2634 49.9404 23.3091 49.9053 23.3447C50.4446 23.7215 50.9377 24.0211 51.4108 24.2466C51.6146 24.3319 51.7743 24.3877 51.9371 24.4324C52.0485 24.4639 52.1369 24.5564 52.168 24.6731C52.7566 24.8631 53.3532 25.0022 53.9347 25.0835C54.2751 25.1363 54.6708 25.1627 55.1117 25.1627C55.4944 25.1627 55.8459 25.1403 56.1563 25.0977C56.4586 25.053 56.7649 24.991 57.0612 24.922C57.4077 24.8245 57.7411 24.6894 58.0274 24.5716C58.7545 24.2588 59.5118 23.8129 60.2178 23.2817C60.3273 23.1954 60.4307 23.107 60.5342 23.0187L60.6085 22.9547C61.0243 22.3839 61.3567 21.8151 61.6239 21.219C61.893 20.5598 62.0738 19.9179 62.1783 19.2588C62.2255 18.8363 62.2566 18.4473 62.2636 18.0684C62.2636 17.6947 62.2375 17.3169 62.1783 16.8436C62.1311 16.4982 62.0407 16.0636 61.9232 15.6187C61.8117 15.1982 61.664 14.7666 61.4742 14.3014C61.2884 13.8535 61.0604 13.3894 60.7772 12.8836C60.5462 12.4712 60.257 12.0386 59.8683 11.5216C59.4324 10.9539 59.0106 10.4653 58.5787 10.0286C58.17 9.60814 57.6989 9.1836 57.1395 8.73063C56.1382 7.95468 55.0515 7.31178 53.9106 6.82122C52.9153 6.41497 51.8938 6.13465 50.8724 5.9884C50.532 5.94676 50.1885 5.91934 49.845 5.89903C49.6411 5.88887 49.4402 5.88582 49.2364 5.88582C48.9019 5.88582 48.5956 5.9234 48.3355 5.95793L48.222 5.97824L48.1085 6.00262C47.8062 6.11231 47.5039 6.23317 47.1935 6.36419C44.9288 7.34225 42.6349 8.76618 39.9734 10.8421C37.5228 12.7678 35.2339 14.8712 33.3176 16.674C33.2674 16.7176 33.2222 16.741 33.17 16.7522C32.9731 16.9502 32.7451 17.1493 32.5131 17.3392C31.8021 17.9181 31.0347 18.3812 30.2333 18.7174C29.4569 19.0516 28.5892 19.2882 27.6572 19.4203C27.2042 19.4802 26.7723 19.5096 26.3726 19.5096C26.0432 19.5096 25.6997 19.4883 25.292 19.4446C24.5508 19.3502 23.8186 19.1714 23.1145 18.9134C21.8912 18.4818 20.676 17.8023 19.1765 16.7126C18.9666 16.5602 18.7617 16.3967 18.5538 16.2383C18.5428 16.2311 18.5287 16.2332 18.5197 16.224C18.4956 16.2007 18.4705 16.1793 18.4474 16.157C17.7855 15.6502 17.1327 15.1292 16.518 14.6224L15.5207 13.8098C15.347 13.6717 15.1772 13.5377 15.0065 13.4077C14.7805 13.232 14.5385 13.0502 14.2955 12.8694C15.2174 13.9226 16.1163 14.9951 17.0182 16.0656C18.2254 17.4946 19.5029 18.8759 20.9663 20.0327C20.9592 20.0276 20.9512 20.0225 20.9442 20.0174C21.8692 20.7304 22.8785 21.2961 23.9461 21.7664C24.4151 21.9593 24.8952 22.1219 25.3803 22.2691C25.6766 22.3615 25.9799 22.4174 26.2822 22.4824C26.5293 22.5373 26.7804 22.583 27.0315 22.6216C27.5487 22.6825 28.0699 22.6794 28.5912 22.6622C29.1114 22.6469 29.6377 22.6226 30.157 22.5657C30.6019 22.4997 31.0458 22.4215 31.4857 22.3311C31.9899 22.2275 32.49 22.0863 32.9942 21.9766C33.5054 21.8669 34.0186 21.7704 34.5329 21.677C34.8121 21.6283 35.0943 21.5633 35.3634 21.4769C35.5804 21.4079 35.7913 21.3246 36.0012 21.2393C36.2804 21.1184 36.5576 20.9935 36.8318 20.8645C36.9885 20.7751 37.1592 20.7264 37.339 20.7264C37.6041 20.7264 37.8632 20.833 38.05 21.0229C38.4417 21.419 38.4347 22.066 38.05 22.4621C37.6111 22.9232 37.107 23.3122 36.5857 23.6738C36.3507 23.8393 36.1087 24.0008 35.8706 24.1562C35.5914 24.3319 35.3122 24.5005 35.0129 24.6386C34.6755 24.793 34.332 24.9311 33.9775 25.0378C33.6169 25.1444 33.2352 25.1932 32.8606 25.2378C32.5513 25.2744 32.236 25.2917 31.9196 25.2917C31.6203 25.2917 31.32 25.2764 31.0247 25.248C30.6702 25.2135 30.3197 25.1586 29.9691 25.0997C29.6899 25.052 29.4137 25.0174 29.1386 24.9514C28.5289 24.8133 27.9404 24.6173 27.3549 24.404C26.8266 24.2151 26.2963 24.0394 25.772 23.8363C25.5129 23.7327 25.2608 23.6128 25.0097 23.4991C24.7376 23.3752 24.4654 23.2512 24.1992 23.1131C23.2933 22.648 22.4527 22.0701 21.6522 21.4363C20.8759 20.8239 20.1367 20.1586 19.4387 19.4568C18.0085 18.0105 16.739 16.4129 15.4384 14.8499C15.2958 14.6792 15.1491 14.5117 15.0065 14.342C15.2787 14.9636 15.4675 15.6187 15.571 16.2931C15.6392 16.7308 15.6764 17.1747 15.6794 17.6155C15.6865 18.0664 15.6382 18.5113 15.574 18.9551C15.4585 19.8021 15.1963 20.6116 14.8147 21.3723C14.6068 21.7928 14.3416 22.1777 14.0554 22.5434C13.732 22.9537 13.3714 23.3254 12.9687 23.6585C12.1311 24.3542 11.1609 24.8803 10.1023 25.1424C9.59312 25.2663 9.05882 25.3211 8.53556 25.3211C8.51949 25.3211 8.50443 25.3211 8.48836 25.3211C8.20915 25.3181 7.93296 25.2764 7.65777 25.2389C7.40267 25.2013 7.16063 25.1251 6.91859 25.0286C6.82016 25.0012 6.73176 24.9494 6.65644 24.8742C6.54395 24.7605 6.47968 24.6051 6.47968 24.4477C6.47968 24.1206 6.75187 23.8383 7.07929 23.8413C7.6618 23.8484 8.23425 23.8515 8.81174 23.7865C9.46256 23.6849 10.0943 23.4991 10.7039 23.2543C11.2322 23.0197 11.7263 22.7353 12.1904 22.39C12.5559 22.0873 12.8914 21.7593 13.1867 21.3886C13.5322 20.9193 13.8194 20.4227 14.0524 19.8895C14.2754 19.3319 14.434 18.7621 14.5234 18.1669C14.5998 17.522 14.6058 16.8781 14.5325 16.2301C14.5325 16.2301 14.5325 16.2291 14.5325 16.2281C14.5285 16.1895 14.5234 16.1509 14.5184 16.1113C14.5204 16.1448 14.5244 16.1763 14.5295 16.2068C14.423 15.4745 14.2412 14.7615 13.964 14.079C13.968 14.0861 13.971 14.0922 13.9741 14.0993C13.7471 13.5712 13.4769 13.0715 13.1364 12.6114C13.1113 12.5789 13.0822 12.5505 13.0561 12.519C13.2087 12.8348 13.3503 13.1598 13.4568 13.492C13.5934 13.9124 13.6677 14.3563 13.733 14.793C13.7672 15.0276 13.8013 15.2612 13.8184 15.4989C13.8385 15.7396 13.8325 15.9813 13.8284 16.222C13.8144 16.7044 13.7571 17.193 13.6517 17.6642C13.6105 17.8572 13.5392 18.043 13.4649 18.2259C13.3594 18.4909 13.2439 18.7428 13.0902 18.9866C12.8381 19.3857 12.5218 19.7513 12.1502 20.0439C11.9292 20.2196 11.7113 20.378 11.4521 20.4948C11.193 20.6187 10.9379 20.6979 10.6587 20.7497C10.5884 20.769 10.5191 20.7782 10.4498 20.7782C10.3805 20.7782 10.3102 20.769 10.2409 20.7497C10.0471 20.6949 9.87635 20.5608 9.77391 20.3851C9.66544 20.2023 9.63732 19.9789 9.69256 19.7727C9.75383 19.5594 9.8834 19.4284 10.0531 19.3014C10.0571 19.2984 10.0622 19.2943 10.0662 19.2913C10.4498 18.9734 10.8204 18.6443 11.1378 18.2594C11.4622 17.8064 11.7153 17.3118 11.9393 16.7999C12.1652 16.222 12.2938 15.6238 12.3792 15.0114C12.4163 14.6569 12.4214 14.3014 12.4083 13.9439C12.3993 13.5752 12.3832 13.2055 12.341 12.843C12.342 12.8491 12.343 12.8541 12.344 12.8602C12.343 12.8531 12.342 12.845 12.34 12.8379C12.337 12.8094 12.334 12.782 12.33 12.7536C12.332 12.7749 12.334 12.7983 12.337 12.8206C12.2858 12.4987 12.2215 12.1848 12.107 11.8801C12.0517 11.7491 11.9875 11.6232 11.9212 11.4972C11.9081 11.4739 11.9172 11.4485 11.9111 11.4231C11.649 11.2393 11.3798 11.0707 11.0896 10.9305C11.0826 10.9275 11.0826 10.9173 11.0765 10.9132C11.0062 10.8818 10.942 10.8421 10.8707 10.8117C10.0883 10.4816 9.27174 10.2541 8.44517 10.1373C8.14186 10.0936 7.78232 10.0723 7.37757 10.0723C7.0612 10.0723 6.74886 10.0896 6.44253 10.1271C6.12516 10.1708 5.80978 10.2551 5.50446 10.378C5.16901 10.5324 4.84663 10.7294 4.51922 10.9793C4.21992 11.2281 3.94373 11.5084 3.70068 11.8141C3.48977 12.0995 3.30197 12.4286 3.15735 12.7658C3.08302 12.9608 3.02173 13.1537 2.98056 13.3528C3.00165 13.5336 3.02878 13.6362 3.06895 13.7367C3.10611 13.818 3.15031 13.8942 3.20455 13.9693C3.27585 14.0587 3.35318 14.1369 3.44156 14.209C3.5651 14.2963 3.69464 14.3695 3.83827 14.4314C4.00097 14.4893 4.16669 14.531 4.33642 14.5543C4.41878 14.5645 4.50215 14.5685 4.58551 14.5685C4.67691 14.5685 4.7683 14.5635 4.85869 14.5543C4.97419 14.5401 5.13587 14.4985 5.29255 14.4375C5.398 14.3908 5.49142 14.336 5.57679 14.2699C5.63404 14.2192 5.68525 14.1704 5.73547 14.1125C5.79071 14.0404 5.83792 13.9602 5.88011 13.8667C5.91425 13.7702 5.93733 13.6717 5.95039 13.5661C5.95039 13.5184 5.9504 13.4158 5.94337 13.3091C5.94035 13.2523 5.96144 13.1974 6.00362 13.1548C6.06087 12.9273 6.21956 12.8044 6.38427 12.8044C6.42846 12.8044 6.45759 12.8125 6.48973 12.8257C6.6665 12.8805 6.84023 12.9496 7.01097 13.0329C7.15459 13.1009 7.28415 13.1954 7.41472 13.2959C7.53323 13.3924 7.63165 13.5021 7.74313 13.6626C7.83252 13.7906 7.90786 13.9358 7.97917 14.1186C8.02336 14.2384 8.04044 14.3685 8.05751 14.4934C8.08563 14.6996 8.07559 14.8499 8.06152 14.9697C8.02035 15.2917 7.91487 15.6014 7.74715 15.8929C7.61759 16.1387 7.41372 16.3825 7.15962 16.5978C6.89447 16.8172 6.59016 16.9817 6.25471 17.0883C6.04782 17.1645 5.8108 17.2021 5.55068 17.2021C5.44824 17.2021 5.34579 17.199 5.24737 17.1879C4.87074 17.1503 4.48205 17.0172 4.05922 16.7806C3.87844 16.6811 3.71475 16.5561 3.55104 16.4292C3.37127 16.287 3.2166 16.1397 3.03582 15.9356C2.78674 15.6319 2.59189 15.2703 2.45831 14.8621C2.35788 14.5472 2.32071 14.1785 2.34883 13.7672C2.37293 13.3833 2.47138 12.9841 2.64212 12.5799C2.94141 11.8507 3.45361 11.1763 4.12552 10.6309C4.77532 10.0916 5.53662 9.74018 6.32603 9.61627C6.67152 9.5726 6.9959 9.55127 7.31829 9.55127C7.54025 9.55127 7.75819 9.55838 7.97613 9.57158C8.52149 9.61322 9.05883 9.70361 9.61925 9.84682C10.3263 10.0235 11.0514 10.3028 11.8147 10.6868C11.6751 10.5893 11.5385 10.4877 11.3959 10.3932C10.6607 9.90369 9.87134 9.47509 9.06185 9.1247C8.6119 8.93883 8.15592 8.77125 7.6879 8.63109C7.23193 8.495 6.76593 8.40055 6.29489 8.32945C5.73045 8.26039 5.16902 8.2482 4.60559 8.31422C4.25507 8.37313 3.91259 8.45844 3.57915 8.58336C3.313 8.70422 3.0569 8.84336 2.80882 8.99977C2.4784 9.21306 2.15801 9.43345 1.81754 9.62643C1.56947 9.7676 1.2521 9.73307 1.05123 9.52689C0.969881 9.44767 0.914648 9.35119 0.887531 9.24455C0.844345 9.08712 0.850354 8.87688 0.945766 8.74282Z" fill="white"/>
</svg>
